<svg width="32" height="32" viewBox="0 0 32 32" fill="none" xmlns="http://www.w3.org/2000/svg">
  <rect width="32" height="32" rx="8" fill="#E6EDFF"/>
  <g transform="translate(4 4)" fill="none" stroke="#5D87FF" stroke-linecap="round" stroke-linejoin="round" stroke-width="1.5">
    <path d="M3 21h18"/>
    <path d="M3 7v1a3 3 0 0 0 6 0v-1m0 1a3 3 0 0 0 6 0v-1m0 1a3 3 0 0 0 6 0v-1h-18l2-4h14l2 4"/>
    <path d="M5 21V10.85"/>
    <path d="M19 21V10.85"/>
    <path d="M9 21v-4a2 2 0 0 1 2-2h2a2 2 0 0 1 2 2v4"/>
  </g>
</svg>
